<svg width="1280" height="1280" viewBox="0 0 1280 1280" fill="none" xmlns="http://www.w3.org/2000/svg">
<path fill-rule="evenodd" clip-rule="evenodd" d="M548.238 200.25C547.684 200.938 546.902 203.075 546.5 205C546.098 206.925 545.444 208.95 545.046 209.5C544.648 210.05 542.85 214.775 541.049 220C539.248 225.225 537.213 230.85 536.527 232.5C535.841 234.15 534.697 237.75 533.985 240.5C533.272 243.25 532.365 245.95 531.967 246.5C531.57 247.05 530.924 248.625 530.532 250C529.255 254.477 524.911 265.098 522.871 268.73C520.266 273.367 517.309 275.699 513 276.516C511.075 276.881 509.05 277.529 508.5 277.956C507.95 278.384 505.093 279.04 502.151 279.415C496.181 280.174 481.203 284.644 479.214 286.26C478.506 286.835 474.681 287.483 470.714 287.7L463.5 288.095L459.063 283.956C456.623 281.679 453.023 278.62 451.063 277.158C449.103 275.696 447.05 273.988 446.5 273.361C445.95 272.735 440.775 268.318 435 263.546C421.829 252.662 416.166 247.913 414.074 246C411.457 243.606 405.699 239.417 403.228 238.109C401.257 237.065 400.001 237.409 393.728 240.703C389.753 242.791 386.275 244.761 386 245.08C385.725 245.399 384.037 246.297 382.25 247.074C380.463 247.852 379 248.784 379 249.146C379 249.508 377.763 250.285 376.25 250.872C374.738 251.459 371.25 253.314 368.5 254.994C365.75 256.674 362.375 258.591 361 259.254C359.625 259.917 358.275 260.693 358 260.98C357.725 261.266 355.925 262.29 354 263.257C347.966 266.285 337.309 272.44 335.619 273.872C333.846 275.375 333.475 280.025 334.91 282.764C335.41 283.719 336.784 291.25 337.963 299.5C339.143 307.75 340.995 319.9 342.079 326.5C346.381 352.674 347.298 360.198 346.268 360.852C339.618 365.078 317.714 386.491 313.127 393.25C310.391 397.282 309.412 398 306.652 398C304.863 398 302.972 397.61 302.45 397.134C301.928 396.657 297.225 395.727 292 395.068C286.775 394.408 281.15 393.454 279.5 392.948C277.85 392.442 272.225 391.357 267 390.538C247.486 387.478 233.432 385.08 231.297 384.445C227.278 383.252 223.503 385.955 219.891 392.614C218.026 396.052 212.112 406.495 206.75 415.822C201.387 425.149 197 433.242 197 433.807C197 434.371 196.649 434.983 196.219 435.167C195.79 435.35 193.365 439.183 190.83 443.685C185.812 452.598 185.817 452.795 191.186 458.5C192.222 459.6 195.242 463.266 197.898 466.646C203.122 473.295 204.688 475.222 207 477.846C207.825 478.782 212.015 483.812 216.311 489.024C228.194 503.439 230.413 506.118 231.5 507.359C239.419 516.404 239.248 516.073 238.582 521.093C238.233 523.721 237.312 527.097 236.535 528.595C235.758 530.093 234.844 533.16 234.504 535.409C234.165 537.659 233.481 540.4 232.986 541.5C232.49 542.6 231.427 546.875 230.623 551C229.82 555.125 228.412 561.246 227.495 564.602L225.829 570.704L217.164 573.551C212.399 575.117 208.275 576.668 208 576.998C207.725 577.328 205.475 578.167 203 578.862C198.287 580.187 194.363 581.609 179.5 587.377C174.55 589.299 168.925 591.325 167 591.881C161.839 593.371 150.836 597.465 148.25 598.858L146 600.07V638.38C146 674.224 146.118 676.797 147.829 678.345C148.835 679.255 150.185 680 150.829 680C151.473 680 152 680.379 152 680.842C152 681.305 153.913 682.251 156.25 682.945C158.587 683.639 160.95 684.564 161.5 685.001C162.05 685.438 164.75 686.497 167.5 687.355C170.25 688.212 175.65 690.093 179.5 691.535C183.35 692.976 188.975 694.837 192 695.67C195.025 696.503 197.95 697.549 198.5 697.994C199.05 698.44 201.525 699.317 204 699.944C208.946 701.196 209.492 701.413 219.202 705.972C222.887 707.703 226.116 709.88 226.377 710.81C226.637 711.739 227.161 714.075 227.541 716C227.92 717.925 228.557 719.95 228.956 720.5C229.355 721.05 230.255 724.875 230.957 729C231.659 733.125 232.572 736.95 232.986 737.5C233.4 738.05 234.06 740.3 234.452 742.5C234.845 744.7 235.78 747.85 236.531 749.5C237.282 751.15 238.293 754.075 238.779 756C239.52 758.938 240.05 759.449 242.081 759.18C243.411 759.004 252.6 758.462 262.5 757.976C272.4 757.49 282.525 756.644 285 756.097C294.568 753.981 302.519 751.817 303.488 751.063C304.045 750.63 305.85 749.961 307.5 749.576C313.133 748.263 327 740.794 327 739.074C327 738.173 326.302 734.975 325.448 731.968C321.482 717.995 317.891 700.238 314.839 679.5C313.302 669.06 313.299 612.352 314.834 601C317.715 579.693 324.832 547.386 328.712 538C329.28 536.625 330.079 533.925 330.488 532C330.897 530.075 331.575 528.05 331.995 527.5C332.415 526.95 333.53 523.8 334.474 520.5C335.417 517.2 336.538 514.05 336.964 513.5C337.391 512.95 338.258 510.888 338.892 508.918C339.526 506.948 340.934 503.591 342.022 501.457C343.11 499.323 344 496.997 344 496.289C344 495.58 344.45 495 345 495C345.55 495 346 494.443 346 493.762C346 492.527 355.998 471.95 357.059 471C357.366 470.725 359.29 467.575 361.334 464C369.291 450.08 386.244 425.721 394.615 416.179C413.387 394.781 426.552 381.854 442.557 369.105C449.189 363.822 455.714 358.725 457.057 357.777C458.401 356.83 462.227 354.13 465.56 351.777C472.438 346.923 474.087 345.844 479 342.982C480.925 341.861 483.85 340.08 485.5 339.024C487.15 337.969 491.875 335.324 496 333.148C500.125 330.971 504.85 328.475 506.5 327.601C508.15 326.727 510.063 326.01 510.75 326.006C511.438 326.003 512 325.55 512 325C512 324.45 512.563 323.986 513.25 323.969C513.938 323.952 516.75 322.831 519.5 321.478C522.25 320.125 524.824 319.014 525.22 319.009C525.617 319.004 528.4 317.875 531.406 316.5C534.412 315.125 537.463 313.997 538.186 313.994C538.909 313.99 540.625 313.402 542 312.687C545.798 310.712 571.825 302.866 579 301.533C580.925 301.176 583.4 300.482 584.5 299.992C586.611 299.051 608.986 295.416 622.5 293.818C633.412 292.528 676.361 292.3 699.354 293.41C717.627 294.293 718.198 294.262 717.854 292.41C717.61 291.094 715.634 289.848 711.5 288.403C708.2 287.25 704.825 286.055 704 285.748C699.167 283.951 684.831 280.025 681 279.45C678.525 279.078 676.05 278.434 675.5 278.018C674.95 277.603 670.754 276.667 666.176 275.939C658.721 274.754 657.704 274.328 656.426 271.858C655.642 270.341 655 268.582 655 267.951C655 267.319 654.343 265.384 653.54 263.651C652.737 261.918 650.483 256 648.531 250.5C646.579 245 644.568 239.6 644.061 238.5C643.554 237.4 642.599 234.7 641.939 232.5C641.279 230.3 640.407 228.05 640 227.5C639.593 226.95 638.713 224.7 638.044 222.5C637.375 220.3 636.187 217.073 635.405 215.33C634.622 213.586 633.705 210.774 633.366 209.08C633.027 207.386 632.406 206 631.986 206C631.566 206 630.927 204.425 630.566 202.5L629.909 199H589.577C558.515 199 549.013 199.287 548.238 200.25ZM728.611 272.195C727.8 275.113 726.825 279.525 726.445 282C726.066 284.475 725.457 286.725 725.094 287C724.414 287.514 722.148 295.927 719.221 308.803L717.561 316.105L705.03 315.704C698.139 315.483 688.675 314.704 684 313.974C673.174 312.283 628.945 312.182 620.5 313.829C617.2 314.473 610.573 315.64 605.773 316.422C594.621 318.241 577.962 321.889 575.94 322.956C575.083 323.409 571.708 324.328 568.44 324.998C565.173 325.668 562.05 326.574 561.5 327.011C560.95 327.447 558.475 328.315 556 328.94C551.63 330.042 547.997 331.399 539.305 335.177C536.998 336.18 534.791 337 534.401 337C532.705 337 507.55 349.358 505 351.444C504.175 352.118 502.038 353.249 500.25 353.957C498.462 354.664 497 355.638 497 356.121C497 356.605 496.394 357 495.653 357C494.912 357 493.328 357.848 492.132 358.885C490.292 360.481 490.198 360.862 491.519 361.369C492.377 361.698 493.849 361.555 494.79 361.05C495.73 360.546 499.425 359.611 503 358.973C506.575 358.334 509.95 357.472 510.5 357.056C511.05 356.64 514.425 355.715 518 355C521.575 354.285 524.95 353.358 525.5 352.938C526.05 352.519 530.325 351.641 535 350.986C539.675 350.331 544.4 349.411 545.5 348.941C548.324 347.734 573.308 346 587.869 346C602.821 346 628.764 347.75 631.5 348.942C632.6 349.422 637.55 350.491 642.5 351.318C654.354 353.299 666.13 355.867 668 356.879C668.825 357.326 671.928 358.271 674.895 358.98C677.862 359.689 681.462 360.881 682.895 361.628C684.328 362.376 686.076 362.99 686.78 362.994C688.057 363 696.794 366.436 704.64 370.017C706.916 371.056 709.954 372.201 711.39 372.562C712.825 372.922 714 373.55 714 373.957C714 374.364 715.688 375.418 717.75 376.3C719.813 377.182 724.425 379.506 728 381.464C734.77 385.172 735.099 385.37 741.294 389.482C743.381 390.867 745.324 392 745.611 392C745.898 392 747.608 393.125 749.411 394.5C751.214 395.875 753.003 397 753.387 397C753.77 397 754.628 397.45 755.292 398C755.956 398.55 761.45 402.67 767.5 407.155C773.55 411.641 780.525 417.098 783 419.283C791.261 426.574 799.704 434.739 801.219 436.903C802.044 438.08 804.244 440.724 806.109 442.78C807.974 444.836 811.134 448.538 813.132 451.009C815.129 453.479 817.829 456.694 819.132 458.154C822.548 461.983 824.722 464.872 828.235 470.25L831.337 475H1030.25C1188.63 475 1229.08 474.746 1228.75 473.754C1228.08 471.741 1215.36 469.567 1195.5 468.073C1161.65 465.525 1103.22 460.615 1086.5 458.912C1080.45 458.297 1065.83 457.029 1054 456.096C1042.17 455.162 1031.83 454.123 1031 453.787C1030.17 453.451 1021.4 452.659 1011.5 452.027C1001.6 451.396 991.925 450.495 990 450.025C988.075 449.555 977.275 448.626 966 447.96C954.725 447.295 945.072 446.356 944.55 445.875C944.028 445.394 941.327 444.973 938.55 444.94C928.313 444.82 923.77 443.521 921.032 439.932C919.639 438.106 917.24 435.311 915.7 433.72L912.9 430.828L916.337 426.664C919.122 423.292 938.532 403.803 947.244 395.632C948.34 394.605 948.843 393.48 948.362 393.132C947.882 392.784 946.168 390.7 944.555 388.5C939.784 381.996 910.018 353 908.112 353C907.148 353 899.641 359.904 891.43 368.342C883.218 376.781 875.268 384.479 873.763 385.449C871.139 387.14 870.905 387.136 868.103 385.356C861.612 381.234 851.046 372.413 851.024 371.098C851.011 370.327 852.965 366.277 855.367 362.098C857.768 357.919 860.049 353.488 860.434 352.25C860.819 351.012 861.442 349.999 861.817 349.999C862.193 349.998 864.075 346.96 866 343.249C867.925 339.537 869.756 336.275 870.069 336C870.992 335.189 875.262 325.923 874.864 325.595C874.664 325.43 866.85 320.899 857.5 315.526C848.15 310.154 838.7 304.665 836.5 303.328C834.3 301.991 831.263 300.371 829.75 299.729C828.237 299.087 827 298.21 827 297.781C827 297.351 826.415 297 825.699 297C824.555 297 819.752 304.421 813.5 315.845C812.4 317.855 811.186 319.737 810.803 320.026C810.42 320.316 807.7 325.309 804.759 331.123L799.413 341.693L791.956 338.777C787.855 337.174 783.15 335.262 781.5 334.529C779.85 333.797 777.6 333.029 776.5 332.824C774.822 332.51 774.557 331.81 774.854 328.475C775.049 326.289 775.538 324.275 775.942 324C776.345 323.725 777.179 321.25 777.795 318.5C779.393 311.368 781.901 301.542 784.047 294C787.47 281.975 787.458 281.932 780 279.334C776.425 278.089 771.025 276.53 768 275.87C764.975 275.21 762.05 274.336 761.5 273.929C760.95 273.521 757.575 272.651 754 271.994C750.425 271.337 745.7 270.197 743.5 269.461C741.3 268.724 737.382 267.845 734.794 267.506L730.088 266.891L728.611 272.195ZM652 497.112C646.225 497.57 639.7 498.383 637.5 498.918C635.3 499.453 628.775 500.635 623 501.545C617.225 502.455 612.05 503.54 611.5 503.956C610.95 504.373 607.626 505.263 604.113 505.934C600.599 506.605 596.999 507.539 596.113 508.009C595.226 508.479 592.7 509.321 590.5 509.88C585.659 511.109 575.616 514.596 571.5 516.476C569.85 517.229 567.262 518.154 565.75 518.531C564.238 518.908 563 519.618 563 520.108C563 520.599 562.376 521 561.614 521C558.512 521 527.153 538.03 526.167 540.25C525.983 540.663 525.394 541 524.857 541C524.32 541 521.934 542.462 519.555 544.25C517.176 546.038 514.22 548.175 512.986 549C503.979 555.021 481.838 577.159 474.5 587.48C473.4 589.028 470.578 592.815 468.228 595.897C465.878 598.979 463.27 602.4 462.433 603.5C457.989 609.337 447.715 622.7 446.671 624C446.009 624.825 443.899 627.75 441.983 630.5C440.068 633.25 437.979 635.95 437.343 636.5C436.388 637.326 428.732 647.348 420.79 658.17C419.849 659.451 414.263 666.8 408.377 674.5C402.491 682.2 392.13 695.817 385.353 704.759C369.624 725.516 365.53 730.137 354.936 739.099C348.616 744.445 334.227 754.53 330.835 755.99C329.551 756.543 327.825 757.419 327 757.937C324.955 759.22 314.283 764 313.463 764C313.1 764 311.384 764.655 309.651 765.456C306.773 766.786 301.134 768.339 289 771.141C286.525 771.713 276.85 772.561 267.5 773.025C240.99 774.342 238.909 774.837 231.313 781.644C229.56 783.215 226.881 785.4 225.36 786.5C223.839 787.6 221.223 789.652 219.547 791.06C217.871 792.468 212.675 796.518 208 800.06C203.325 803.602 199.009 806.95 198.408 807.5C197.808 808.05 195.835 809.625 194.025 811C192.215 812.375 189.953 814.175 189 815C188.047 815.825 185.775 817.625 183.952 819C182.129 820.375 177.187 824.2 172.969 827.5C168.752 830.8 164.056 834.4 162.535 835.5C159.751 837.513 156.856 839.808 152.445 843.5C151.13 844.6 145.768 848.835 140.527 852.912C131.518 859.922 131 860.527 131 864.055C131 866.535 131.531 867.99 132.582 868.393C135.215 869.404 271.649 869.055 284 868.006C294.875 867.083 300.806 866.052 316 862.444C319.575 861.595 324.525 860.421 327 859.835C329.475 859.249 331.95 858.419 332.5 857.992C333.05 857.565 336.421 856.473 339.991 855.567C343.561 854.66 346.914 853.486 347.441 852.959C347.968 852.432 349.022 852 349.782 852C354.14 852 395.72 831.504 396.833 828.807C397.017 828.363 397.618 828 398.17 828C399.011 828 401.641 826.32 409.476 820.776C421.293 812.415 433.303 800.338 444.558 785.5C449.147 779.45 457.843 767.975 463.883 760C469.923 752.025 478.158 741.247 482.183 736.05C486.207 730.852 495.3 718.927 502.39 709.55C523.012 682.272 533.4 668.59 534.487 667.275C535.533 666.01 536.818 664.338 542 657.5C547.038 650.851 548.454 649.006 549.5 647.725C550.05 647.051 551.836 644.7 553.47 642.5C558.629 635.55 565.255 628.875 573 622.823C577.125 619.6 581.059 616.506 581.743 615.949C584.618 613.602 606.935 602.818 611.988 601.333C615.006 600.446 618.156 599.336 618.988 598.868C619.82 598.399 623.425 597.313 627 596.455C630.575 595.596 635.3 594.382 637.5 593.757C640.414 592.929 699.039 592.538 853.5 592.314C1019.48 592.074 1066.04 591.739 1068 590.77C1070.15 589.704 1089.65 574.648 1094 570.69C1094.83 569.94 1098.52 567.037 1102.21 564.238C1109.45 558.75 1111.17 557.366 1113.8 554.908C1114.73 554.032 1118.65 550.914 1122.5 547.979C1126.35 545.043 1129.72 542.346 1130 541.985C1130.28 541.624 1131.22 540.918 1132.1 540.415C1132.98 539.912 1135.68 537.827 1138.1 535.782C1140.52 533.738 1145.22 529.913 1148.54 527.282C1151.87 524.652 1155.24 521.934 1156.04 521.243C1156.84 520.551 1160.65 517.478 1164.5 514.414C1180.73 501.498 1181.8 500.204 1178.8 497.2C1177.87 496.272 1119.19 496.032 920.05 496.139C778.397 496.216 657.775 496.653 652 497.112ZM637 620.685C632.351 621.17 615.767 625.133 614.5 626.062C613.95 626.466 611.25 627.476 608.5 628.306C605.75 629.137 601.475 630.975 599 632.391C596.525 633.808 593.518 635.401 592.318 635.933C591.117 636.464 587.067 639.041 583.318 641.659C571.76 649.729 566.132 655.204 556.756 667.5C553.4 671.9 550.05 676.175 549.309 677C548.071 678.379 540.334 688.326 536.23 693.814C535.279 695.086 533.809 696.902 532.964 697.85C532.118 698.798 530.384 701.261 529.108 703.325C527.058 706.643 526.933 707.424 528.032 710.078C530.663 716.428 520.692 716 665.987 716C798.345 716 798.535 715.997 802.413 713.919C804.549 712.774 807.242 710.702 808.398 709.314C809.554 707.926 811.288 705.937 812.25 704.895C813.212 703.853 814 702.755 814 702.456C814 701.979 821.725 692.137 825.346 688C826.65 686.51 833.925 676.976 852.051 653.002C857.248 646.128 861.95 640.015 862.5 639.417C863.05 638.819 864.4 637.062 865.5 635.513C866.6 633.963 868.276 631.875 869.225 630.873C871.977 627.965 872.499 624.209 870.464 621.96C868.72 620.033 866.743 620.003 754.595 620.16C691.843 620.248 638.925 620.484 637 620.685ZM448.245 805.25C448.471 805.938 449.746 806.617 451.078 806.761C452.41 806.904 455.975 807.479 459 808.039C462.025 808.599 472.936 809.692 483.246 810.467C493.557 811.243 502.332 812.085 502.746 812.338C503.161 812.591 512.05 813.307 522.5 813.929C532.95 814.552 543.75 815.48 546.5 815.992C549.25 816.505 563.65 817.628 578.5 818.488C593.35 819.348 606.4 820.304 607.5 820.612C609.485 821.168 642.272 823.641 684.5 826.419C696.6 827.215 709.65 828.327 713.5 828.889C717.35 829.452 731.3 830.426 744.5 831.054C757.7 831.683 769.175 832.475 770 832.816C770.825 833.157 779.3 833.9 788.833 834.468L806.166 835.5L796.617 845.5C791.365 851 787.053 855.837 787.034 856.25C787.015 856.663 786.363 857 785.583 857C784.804 857 784.017 857.356 783.833 857.791C783.65 858.226 779.225 861.939 774 866.043C765.067 873.058 760.518 876.419 752.76 881.733C750.967 882.961 749.019 884.365 748.431 884.853C743.933 888.588 716.647 903.707 707.5 907.532C693.97 913.191 686.74 916.001 685.694 916.006C685.037 916.01 683.281 916.648 681.792 917.425C680.303 918.202 676.478 919.399 673.292 920.084C670.106 920.77 667.05 921.647 666.5 922.033C665.95 922.42 662.35 923.305 658.5 924C654.65 924.695 651.05 925.606 650.5 926.024C649.95 926.442 645.225 927.32 640 927.975C634.775 928.63 629.6 929.569 628.5 930.063C622.208 932.886 555.614 932.895 549.5 930.074C548.4 929.566 543.273 928.648 538.106 928.034C532.939 927.419 527.989 926.536 527.106 926.07C526.223 925.605 522.8 924.675 519.5 924.004C516.2 923.332 513.021 922.396 512.436 921.924C511.307 921.011 493.05 917.617 492.458 918.209C491.469 919.198 500.502 926 502.804 926C503.462 926 504 926.382 504 926.848C504 927.315 505.913 928.54 508.25 929.571C510.587 930.601 512.725 931.682 513 931.972C514.178 933.216 533.319 942 534.85 942C535.487 942 537.686 942.9 539.739 944C541.791 945.1 544.024 946 544.701 946C545.378 946 547.41 946.636 549.216 947.414C554.827 949.829 568.283 953.907 573 954.622C575.475 954.997 577.725 955.596 578 955.954C578.757 956.939 603.534 961.863 611.5 962.612C615.35 962.974 619.206 963.631 620.068 964.073C620.93 964.514 630.015 965.387 640.255 966.012C659.33 967.175 692.281 966.08 698.63 964.072C700.208 963.572 705.103 962.9 709.507 962.579L717.514 961.994L719.16 968.747C721.644 978.944 723.971 987.268 724.959 989.5C725.446 990.6 726.123 992.85 726.463 994.5C726.803 996.15 728.076 1000.76 729.291 1004.74L731.5 1011.98L735 1011.36C736.925 1011.01 740.075 1010.15 742 1009.45C743.925 1008.74 747.975 1007.61 751 1006.95C754.025 1006.28 756.95 1005.46 757.5 1005.12C758.555 1004.48 767.966 1001.94 779.25 999.262C786.78 997.474 787.106 996.854 784.893 988.5C783.859 984.597 781.905 976.659 778.493 962.5C777.566 958.65 776.419 954.6 775.946 953.5C775.473 952.4 774.954 950.397 774.793 949.048C774.553 947.038 775.086 946.426 777.75 945.653C779.538 945.135 781 944.326 781 943.855C781 943.385 781.788 942.987 782.75 942.971C783.712 942.955 787.65 941.657 791.5 940.087C795.35 938.517 798.809 937.414 799.187 937.636C799.564 937.858 800.503 939.268 801.273 940.77C802.924 943.99 805.051 947.668 811.523 958.5C814.152 962.9 817.668 968.975 819.336 972C823.29 979.168 824.479 980.29 827.247 979.467C830.525 978.492 848.441 968.85 848.833 967.85C849.017 967.382 849.712 967 850.379 967C851.046 967 854.794 965.026 858.708 962.613C862.622 960.2 866.201 958.055 866.662 957.847C869.274 956.667 875 952.692 875 952.059C875 951.649 873.881 949.331 872.513 946.907C871.145 944.483 869.467 941.375 868.786 940C868.104 938.625 866.166 935.475 864.48 933C862.794 930.525 860.089 926.25 858.47 923.5C856.85 920.75 854.977 917.6 854.306 916.5C852.235 913.106 851 909.951 851 908.06C851 906.547 859.114 899.471 869.206 892.183C870.853 890.994 872.741 892.556 888.554 908.183C898.191 917.707 906.847 925.628 907.788 925.785C909.343 926.044 933.088 903.062 944.762 890L948.783 885.5L930.878 867.202L912.972 848.904L915.731 845.202C923.118 835.292 928.257 829 928.964 829C930.181 829 937.978 832.772 943.5 836.032C946.25 837.656 949.4 839.448 950.5 840.016C951.6 840.583 954.167 842.049 956.205 843.274C965.485 848.85 972.886 853 973.552 853C974.616 853 976.522 850.316 980.656 843C982.675 839.425 984.592 836.275 984.914 836C985.596 835.418 987.247 832.534 990.25 826.677C991.428 824.379 992.653 822.275 992.971 822C993.604 821.454 1002 805.108 1002 804.422C1002 804.19 877.313 804 724.917 804C503.697 804 447.916 804.252 448.245 805.25ZM380.452 855.426C371.906 859.613 368.691 861.043 362 863.636C349.297 868.558 345.445 869.918 341 871.05C338.525 871.68 336.05 872.534 335.5 872.948C334.95 873.362 331.575 874.285 328 875C324.425 875.715 321.05 876.631 320.5 877.037C319.95 877.442 317.59 878.089 315.255 878.474C312.921 878.859 310.745 879.604 310.42 880.13C310.095 880.655 311.52 883.204 313.586 885.793C317.975 891.292 338.952 912.284 343.942 916.17L347.37 918.84L345.734 930.17C344.834 936.402 343.199 946.9 342.102 953.5C341.005 960.1 339.143 972.25 337.963 980.5C336.784 988.75 335.41 996.281 334.91 997.236C332.683 1001.49 333.788 1003.74 339.528 1006.68C342.568 1008.23 346.28 1010.18 347.778 1011.01C358.494 1016.93 360.837 1018.27 363.5 1020C365.15 1021.07 368.075 1022.86 370 1023.98C371.925 1025.1 374.4 1026.57 375.5 1027.25C384.629 1032.85 387.902 1034.77 390.5 1036.04C392.15 1036.84 394.077 1038.04 394.782 1038.71C395.487 1039.38 397.642 1040.22 399.569 1040.58C402.694 1041.16 403.748 1040.72 409.287 1036.43C412.704 1033.79 416.23 1030.93 417.122 1030.07C418.013 1029.2 420.488 1027.08 422.622 1025.35C424.755 1023.63 427.65 1021.15 429.055 1019.85C430.46 1018.56 435.635 1014.17 440.555 1010.09C445.475 1006.02 449.95 1002.18 450.5 1001.56C453.366 998.324 464.282 990.894 466.952 990.36C469.822 989.786 478.26 991.439 480.5 993.013C482.545 994.451 496.672 998.836 501.5 999.532C504.25 999.928 506.954 1000.61 507.51 1001.05C508.065 1001.49 511.326 1002.16 514.756 1002.55L520.992 1003.26L522.055 1007.38C522.639 1009.65 523.731 1012.85 524.482 1014.5C525.232 1016.15 526.177 1018.85 526.581 1020.5C526.985 1022.15 527.876 1024.4 528.56 1025.5C529.244 1026.6 530.109 1028.96 530.481 1030.75C530.854 1032.54 531.537 1034 532 1034C532.463 1034 533.146 1035.46 533.518 1037.25C533.891 1039.04 535.237 1042.97 536.509 1046C537.781 1049.03 539.83 1054.2 541.06 1057.5C542.291 1060.8 543.853 1064.85 544.53 1066.5C545.208 1068.15 546.311 1071.86 546.981 1074.75L548.199 1080H589.02H629.841L630.536 1076.75C630.918 1074.96 631.57 1073.05 631.985 1072.5C632.4 1071.95 633.307 1069.7 634.001 1067.5C634.695 1065.3 635.527 1063.05 635.85 1062.5C636.538 1061.33 640.588 1050.05 642.136 1045C642.726 1043.08 643.553 1041.05 643.974 1040.5C644.395 1039.95 645.287 1037.7 645.956 1035.5C646.625 1033.3 647.785 1030.13 648.534 1028.46C649.284 1026.79 650.463 1023.3 651.156 1020.71C651.848 1018.12 652.771 1016 653.207 1016C653.643 1016 654 1015.24 654 1014.32C654 1013.39 654.921 1010.73 656.046 1008.4C657.886 1004.6 658.617 1004.05 663.296 1002.96C666.158 1002.29 668.95 1001.41 669.5 1001.01C670.05 1000.6 672.525 999.967 675 999.594C680.861 998.709 699.926 994.16 702.5 993.032C703.6 992.55 705.85 991.859 707.5 991.497C712.741 990.346 720 986.803 720 985.396C720 983.518 716.087 982.716 709.801 983.307C677.232 986.368 660.655 987.011 640.5 985.994C628.95 985.412 618.15 984.536 616.5 984.048C614.85 983.56 608.1 982.435 601.5 981.548C594.9 980.661 588.6 979.526 587.5 979.027C586.4 978.528 583.25 977.641 580.5 977.057C577.75 976.472 571.675 974.915 567 973.596C562.325 972.278 555.8 970.438 552.5 969.507C549.2 968.577 546.05 967.486 545.5 967.083C544.95 966.68 542.479 965.771 540.008 965.063C537.538 964.354 534.625 963.151 533.536 962.387C532.446 961.624 530.936 961 530.179 961C527.483 961 493.04 944.4 485 939.226C472.705 931.313 465.473 926.5 465 925.916C464.725 925.577 463.453 924.748 462.174 924.074C460.895 923.4 459.095 922.184 458.174 921.372C456.564 919.951 441.699 908.418 435.5 903.779C428.137 898.268 393.559 862.527 388.228 854.914C386.535 852.498 386.411 852.506 380.452 855.426Z" fill="white"/>
</svg>
