<svg width="1285" height="1280" viewBox="0 0 1285 1280" fill="none" xmlns="http://www.w3.org/2000/svg">
<path fill-rule="evenodd" clip-rule="evenodd" d="M534.901 155.378C534.291 156.136 533.429 158.491 532.986 160.613C532.542 162.735 531.822 164.966 531.383 165.573C530.944 166.179 528.962 171.387 526.977 177.145C524.992 182.904 522.749 189.104 521.993 190.922C521.237 192.741 519.976 196.709 519.191 199.74C518.405 202.77 517.405 205.746 516.967 206.352C516.529 206.959 515.817 208.695 515.385 210.21C513.977 215.144 509.189 226.85 506.94 230.853C504.069 235.964 500.81 238.534 496.06 239.435C493.938 239.837 491.706 240.551 491.1 241.022C490.494 241.494 487.345 242.217 484.102 242.63C477.521 243.466 461.012 248.393 458.819 250.174C458.039 250.808 453.823 251.522 449.45 251.761L441.499 252.197L436.608 247.635C433.918 245.125 429.95 241.754 427.79 240.142C425.63 238.531 423.367 236.649 422.76 235.957C422.154 235.268 416.45 230.399 410.085 225.14C395.567 213.144 389.325 207.91 387.019 205.801C384.134 203.163 377.787 198.546 375.064 197.104C372.891 195.954 371.507 196.333 364.592 199.963C360.211 202.265 356.377 204.436 356.074 204.787C355.771 205.139 353.91 206.129 351.941 206.985C349.971 207.843 348.358 208.87 348.358 209.269C348.358 209.668 346.995 210.524 345.327 211.171C343.661 211.818 339.816 213.863 336.785 215.714C333.754 217.566 330.033 219.679 328.518 220.409C327.002 221.14 325.514 221.995 325.211 222.312C324.908 222.627 322.924 223.756 320.802 224.821C314.151 228.159 302.404 234.942 300.542 236.521C298.587 238.177 298.178 243.302 299.76 246.321C300.311 247.374 301.826 255.674 303.125 264.767C304.426 273.86 306.467 287.251 307.662 294.525C312.404 323.373 313.415 331.665 312.28 332.386C304.95 337.044 280.806 360.644 275.75 368.094C272.734 372.538 271.655 373.329 268.613 373.329C266.641 373.329 264.556 372.899 263.981 372.375C263.406 371.849 258.222 370.824 252.463 370.098C246.703 369.37 240.503 368.319 238.684 367.761C236.866 367.203 230.665 366.008 224.906 365.105C203.397 361.732 187.906 359.089 185.553 358.389C181.123 357.075 176.962 360.054 172.98 367.393C170.925 371.182 164.406 382.692 158.496 392.972C152.584 403.252 147.749 412.171 147.749 412.794C147.749 413.416 147.362 414.09 146.888 414.293C146.415 414.495 143.742 418.719 140.948 423.681C135.417 433.505 135.422 433.722 141.34 440.01C142.482 441.222 145.811 445.263 148.738 448.988C154.497 456.316 156.223 458.44 158.771 461.332C159.68 462.364 164.299 467.907 169.034 473.652C182.132 489.539 184.578 492.492 185.776 493.86C194.505 503.829 194.317 503.464 193.582 508.997C193.198 511.893 192.183 515.614 191.326 517.265C190.47 518.916 189.462 522.297 189.087 524.775C188.714 527.255 187.96 530.276 187.414 531.489C186.868 532.701 185.696 537.413 184.81 541.959C183.925 546.506 182.373 553.252 181.362 556.951L179.525 563.676L169.974 566.814C164.722 568.54 160.176 570.249 159.873 570.613C159.57 570.977 157.09 571.901 154.362 572.667C149.167 574.128 144.842 575.695 128.459 582.052C123.003 584.171 116.803 586.404 114.681 587.016C108.992 588.659 96.8643 593.171 94.0138 594.706L91.5338 596.042V638.266C91.5338 677.771 91.6638 680.607 93.5498 682.313C94.6587 683.316 96.1467 684.137 96.8565 684.137C97.5664 684.137 98.1473 684.555 98.1473 685.065C98.1473 685.576 100.256 686.618 102.832 687.383C105.408 688.148 108.012 689.168 108.619 689.649C109.225 690.131 112.201 691.298 115.232 692.244C118.263 693.188 124.216 695.261 128.459 696.851C132.703 698.439 138.903 700.49 142.237 701.408C145.572 702.326 148.796 703.479 149.402 703.97C150.008 704.461 152.736 705.428 155.464 706.119C160.916 707.499 161.518 707.738 172.221 712.763C176.283 714.67 179.842 717.07 180.129 718.095C180.416 719.119 180.994 721.693 181.412 723.815C181.83 725.937 182.532 728.169 182.972 728.775C183.412 729.381 184.404 733.597 185.178 738.143C185.952 742.689 186.958 746.905 187.414 747.511C187.871 748.118 188.598 750.597 189.03 753.022C189.463 755.447 190.494 758.919 191.322 760.737C192.15 762.556 193.264 765.78 193.8 767.901C194.616 771.139 195.201 771.703 197.439 771.406C198.905 771.212 209.034 770.615 219.946 770.079C230.858 769.543 242.019 768.611 244.747 768.008C255.293 765.676 264.057 763.291 265.125 762.46C265.739 761.983 267.729 761.245 269.547 760.821C275.756 759.374 291.041 751.142 291.041 749.246C291.041 748.253 290.272 744.728 289.331 741.414C284.959 726.014 281.001 706.443 277.637 683.586C275.943 672.08 275.939 609.579 277.631 597.067C280.807 573.583 288.652 537.976 292.928 527.631C293.554 526.116 294.435 523.14 294.886 521.018C295.337 518.897 296.084 516.665 296.547 516.058C297.01 515.452 298.239 511.98 299.28 508.343C300.319 504.706 301.555 501.234 302.024 500.628C302.495 500.022 303.45 497.749 304.149 495.578C304.848 493.407 306.4 489.707 307.599 487.355C308.799 485.003 309.78 482.439 309.78 481.659C309.78 480.878 310.276 480.238 310.882 480.238C311.488 480.238 311.984 479.624 311.984 478.874C311.984 477.513 323.004 454.834 324.174 453.787C324.512 453.484 326.633 450.012 328.886 446.072C337.657 430.729 356.343 403.882 365.57 393.365C386.262 369.781 400.773 355.534 418.414 341.482C425.724 335.66 432.917 330.042 434.397 328.997C435.878 327.953 440.095 324.978 443.769 322.384C451.351 317.034 453.168 315.845 458.584 312.691C460.705 311.455 463.93 309.492 465.748 308.328C467.567 307.166 472.775 304.25 477.322 301.852C481.869 299.453 487.077 296.702 488.896 295.738C490.714 294.775 492.823 293.985 493.58 293.98C494.338 293.977 494.958 293.478 494.958 292.872C494.958 292.266 495.578 291.754 496.336 291.735C497.094 291.717 500.194 290.481 503.225 288.99C506.256 287.499 509.093 286.274 509.53 286.269C509.967 286.263 513.035 285.019 516.348 283.503C519.662 281.988 523.025 280.745 523.821 280.741C524.618 280.737 526.51 280.089 528.025 279.301C532.212 277.124 560.9 268.477 568.809 267.007C570.931 266.614 573.659 265.849 574.871 265.309C577.198 264.272 601.861 260.266 616.757 258.504C628.784 257.083 676.125 256.831 701.469 258.055C721.611 259.028 722.24 258.994 721.861 256.952C721.592 255.502 719.414 254.129 714.857 252.536C711.22 251.265 707.5 249.948 706.59 249.61C701.263 247.629 685.461 243.302 681.238 242.668C678.51 242.258 675.782 241.549 675.176 241.09C674.57 240.633 669.945 239.601 664.899 238.799C656.681 237.493 655.56 237.023 654.152 234.301C653.288 232.629 652.58 230.69 652.58 229.995C652.58 229.298 651.856 227.166 650.971 225.256C650.085 223.345 647.601 216.823 645.449 210.761C643.298 204.699 641.081 198.748 640.522 197.535C639.963 196.323 638.911 193.347 638.183 190.922C637.456 188.498 636.495 186.018 636.046 185.411C635.597 184.805 634.628 182.325 633.89 179.901C633.153 177.476 631.843 173.919 630.981 171.998C630.118 170.076 629.107 166.977 628.734 165.11C628.36 163.243 627.676 161.715 627.213 161.715C626.75 161.715 626.045 159.979 625.647 157.858L624.923 154H580.467C546.229 154 535.756 154.316 534.901 155.378ZM733.718 234.672C732.824 237.888 731.749 242.751 731.33 245.479C730.912 248.207 730.241 250.687 729.841 250.99C729.092 251.556 726.594 260.829 723.368 275.02L721.538 283.068L707.726 282.626C700.13 282.383 689.698 281.524 684.545 280.719C672.612 278.856 623.861 278.744 614.552 280.56C610.915 281.269 603.61 282.556 598.319 283.417C586.027 285.422 567.665 289.443 565.436 290.619C564.491 291.118 560.771 292.131 557.169 292.87C553.568 293.608 550.126 294.607 549.519 295.088C548.913 295.569 546.185 296.525 543.457 297.214C538.64 298.429 534.636 299.924 525.055 304.088C522.512 305.194 520.079 306.098 519.649 306.098C517.78 306.098 490.053 319.718 487.242 322.017C486.333 322.76 483.977 324.007 482.006 324.787C480.036 325.566 478.424 326.64 478.424 327.172C478.424 327.705 477.756 328.141 476.939 328.141C476.123 328.141 474.377 329.075 473.058 330.218C471.03 331.977 470.927 332.397 472.383 332.956C473.328 333.319 474.951 333.161 475.988 332.604C477.024 332.049 481.097 331.018 485.038 330.315C488.978 329.611 492.698 328.661 493.305 328.202C493.911 327.744 497.631 326.724 501.571 325.936C505.512 325.148 509.232 324.127 509.838 323.664C510.445 323.202 515.157 322.234 520.31 321.512C525.463 320.79 530.671 319.776 531.883 319.258C534.996 317.928 562.535 316.017 578.585 316.017C595.065 316.017 623.661 317.946 626.677 319.26C627.889 319.789 633.346 320.967 638.802 321.878C651.868 324.062 664.848 326.892 666.909 328.007C667.818 328.5 671.239 329.542 674.509 330.323C677.78 331.104 681.748 332.418 683.327 333.242C684.907 334.066 686.833 334.743 687.609 334.747C689.017 334.754 698.647 338.541 707.296 342.488C709.804 343.633 713.153 344.895 714.736 345.293C716.318 345.689 717.613 346.381 717.613 346.83C717.613 347.279 719.473 348.44 721.746 349.412C724.02 350.384 729.104 352.946 733.044 355.104C740.506 359.191 740.869 359.409 747.698 363.941C749.998 365.467 752.14 366.716 752.456 366.716C752.772 366.716 754.657 367.956 756.645 369.472C758.632 370.987 760.604 372.227 761.027 372.227C761.449 372.227 762.395 372.723 763.127 373.329C763.859 373.935 769.915 378.476 776.583 383.419C783.252 388.364 790.94 394.378 793.668 396.786C802.774 404.822 812.08 413.821 813.75 416.206C814.659 417.504 817.084 420.418 819.14 422.684C821.196 424.95 824.679 429.03 826.881 431.753C829.082 434.476 832.058 438.019 833.495 439.628C837.26 443.848 839.656 447.033 843.528 452.96L846.948 458.195H1066.2C1240.78 458.195 1285.36 457.915 1285 456.822C1284.26 454.603 1270.24 452.207 1248.35 450.561C1211.04 447.752 1146.64 442.341 1128.2 440.464C1121.53 439.786 1105.41 438.388 1092.38 437.36C1079.34 436.331 1067.94 435.186 1067.03 434.815C1066.12 434.445 1056.44 433.572 1045.53 432.875C1034.62 432.18 1023.96 431.187 1021.83 430.669C1019.71 430.151 1007.81 429.127 995.38 428.393C982.952 427.66 972.312 426.625 971.737 426.095C971.161 425.565 968.184 425.101 965.123 425.064C953.84 424.932 948.832 423.5 945.814 419.545C944.279 417.532 941.634 414.452 939.937 412.698L936.851 409.511L940.639 404.921C943.709 401.205 965.104 379.725 974.706 370.719C975.914 369.587 976.469 368.347 975.939 367.964C975.41 367.58 973.52 365.283 971.742 362.859C966.483 355.69 933.674 323.732 931.573 323.732C930.51 323.732 922.236 331.341 913.185 340.641C904.134 349.943 895.371 358.427 893.712 359.496C890.819 361.36 890.562 361.355 887.473 359.394C880.318 354.85 868.672 345.128 868.648 343.679C868.633 342.829 870.787 338.365 873.435 333.76C876.081 329.154 878.595 324.27 879.02 322.906C879.444 321.541 880.131 320.425 880.544 320.425C880.959 320.423 883.033 317.075 885.155 312.985C887.277 308.894 889.295 305.299 889.64 304.995C890.657 304.102 895.364 293.889 894.925 293.528C894.705 293.346 886.092 288.352 875.786 282.43C865.48 276.509 855.063 270.459 852.639 268.986C850.214 267.512 846.866 265.727 845.198 265.019C843.531 264.312 842.167 263.345 842.167 262.872C842.167 262.398 841.522 262.011 840.733 262.011C839.472 262.011 834.178 270.19 827.287 282.781C826.074 284.997 824.736 287.071 824.314 287.39C823.892 287.709 820.894 293.212 817.652 299.62L811.759 311.27L803.54 308.056C799.019 306.289 793.833 304.182 792.015 303.374C790.196 302.567 787.716 301.721 786.503 301.495C784.654 301.149 784.362 300.377 784.689 296.702C784.904 294.292 785.443 292.073 785.888 291.77C786.333 291.466 787.252 288.739 787.931 285.708C789.692 277.847 792.457 267.017 794.822 258.705C798.595 245.451 798.582 245.404 790.361 242.541C786.421 241.168 780.469 239.45 777.134 238.723C773.8 237.995 770.576 237.032 769.97 236.583C769.363 236.134 765.643 235.175 761.703 234.451C757.762 233.727 752.554 232.47 750.129 231.659C747.704 230.847 743.386 229.878 740.533 229.504L735.346 228.827L733.718 234.672ZM649.273 482.566C642.908 483.071 635.715 483.967 633.29 484.557C630.865 485.146 623.673 486.449 617.308 487.452C610.942 488.455 605.238 489.651 604.632 490.109C604.026 490.569 600.362 491.55 596.49 492.289C592.616 493.029 588.648 494.058 587.672 494.576C586.694 495.094 583.91 496.022 581.485 496.638C576.149 497.993 565.079 501.836 560.542 503.908C558.723 504.738 555.871 505.758 554.204 506.173C552.537 506.589 551.173 507.371 551.173 507.911C551.173 508.452 550.485 508.894 549.645 508.894C546.226 508.894 511.66 527.664 510.573 530.111C510.371 530.566 509.721 530.938 509.13 530.938C508.538 530.938 505.908 532.549 503.285 534.52C500.663 536.49 497.405 538.846 496.045 539.755C486.117 546.391 461.712 570.79 453.623 582.166C452.411 583.872 449.3 588.046 446.71 591.443C444.12 594.84 441.245 598.61 440.323 599.822C435.424 606.256 424.1 620.984 422.949 622.417C422.219 623.326 419.893 626.55 417.782 629.581C415.671 632.612 413.368 635.587 412.667 636.194C411.614 637.104 403.176 648.15 394.422 660.077C393.384 661.489 387.227 669.589 380.739 678.076C374.251 686.562 362.831 701.57 355.361 711.426C338.024 734.303 333.511 739.396 321.834 749.274C314.868 755.166 299.007 766.281 295.268 767.89C293.853 768.5 291.951 769.465 291.041 770.036C288.787 771.45 277.024 776.719 276.12 776.719C275.72 776.719 273.829 777.44 271.918 778.323C268.746 779.789 262.53 781.501 249.156 784.589C246.428 785.219 235.763 786.154 225.457 786.665C196.237 788.117 193.943 788.663 185.57 796.165C183.638 797.896 180.685 800.305 179.008 801.517C177.332 802.729 174.448 804.991 172.601 806.543C170.754 808.095 165.026 812.558 159.873 816.462C154.72 820.366 149.963 824.056 149.301 824.662C148.639 825.268 146.464 827.004 144.469 828.52C142.474 830.035 139.981 832.019 138.931 832.928C137.88 833.838 135.376 835.822 133.366 837.337C131.357 838.853 125.91 843.068 121.26 846.705C116.612 850.343 111.436 854.31 109.76 855.523C106.691 857.741 103.5 860.271 98.6378 864.34C97.1883 865.552 91.2781 870.22 85.5012 874.713C75.571 882.44 75 883.106 75 886.995C75 889.728 75.5853 891.332 76.7438 891.776C79.646 892.89 230.031 892.506 243.645 891.349C255.631 890.332 262.169 889.196 278.917 885.219C282.857 884.283 288.313 882.99 291.041 882.344C293.769 881.698 296.497 880.783 297.104 880.312C297.71 879.842 301.426 878.638 305.361 877.64C309.296 876.64 312.992 875.346 313.572 874.765C314.153 874.184 315.315 873.708 316.153 873.708C320.956 873.708 366.788 851.118 368.015 848.146C368.218 847.657 368.88 847.257 369.489 847.257C370.416 847.257 373.315 845.405 381.951 839.295C394.976 830.079 408.214 816.769 420.62 800.415C425.678 793.747 435.263 781.1 441.921 772.31C448.578 763.52 457.655 751.641 462.092 745.913C466.528 740.184 476.55 727.041 484.365 716.706C507.096 686.641 518.546 671.562 519.744 670.112C520.897 668.718 522.314 666.875 528.025 659.339C533.579 652.011 535.139 649.977 536.292 648.565C536.899 647.822 538.867 645.231 540.668 642.806C546.355 635.146 553.658 627.79 562.195 621.119C566.742 617.567 571.078 614.157 571.832 613.543C575.001 610.956 599.6 599.071 605.17 597.434C608.496 596.456 611.969 595.233 612.886 594.717C613.803 594.2 617.776 593.003 621.717 592.058C625.657 591.111 630.865 589.773 633.29 589.084C636.502 588.171 701.122 587.741 871.377 587.494C1054.33 587.229 1105.65 586.86 1107.81 585.792C1110.18 584.617 1131.67 568.023 1136.47 563.661C1137.38 562.834 1141.45 559.634 1145.52 556.549C1153.5 550.501 1155.39 548.975 1158.29 546.266C1159.32 545.301 1163.64 541.864 1167.88 538.63C1172.13 535.394 1175.85 532.421 1176.15 532.023C1176.45 531.625 1177.5 530.847 1178.47 530.293C1179.44 529.738 1182.41 527.44 1185.08 525.187C1187.75 522.934 1192.92 518.718 1196.59 515.818C1200.25 512.92 1203.97 509.924 1204.86 509.162C1205.74 508.4 1209.93 505.013 1214.18 501.636C1232.07 487.4 1233.25 485.974 1229.94 482.663C1228.92 481.64 1164.23 481.376 944.732 481.494C788.594 481.579 655.639 482.06 649.273 482.566ZM632.739 618.763C627.615 619.297 609.335 623.665 607.939 624.689C607.332 625.134 604.356 626.248 601.325 627.162C598.294 628.078 593.582 630.104 590.854 631.665C588.126 633.227 584.811 634.982 583.489 635.569C582.165 636.154 577.701 638.994 573.568 641.88C560.828 650.774 554.625 656.808 544.29 670.36C540.591 675.21 536.899 679.922 536.082 680.831C534.717 682.351 526.189 693.314 521.665 699.363C520.617 700.764 518.997 702.766 518.065 703.811C517.133 704.856 515.222 707.57 513.815 709.845C511.556 713.502 511.418 714.363 512.629 717.288C515.529 724.287 504.539 723.815 664.69 723.815C810.582 723.815 810.792 723.812 815.066 721.521C817.421 720.259 820.389 717.976 821.663 716.446C822.937 714.916 824.849 712.724 825.909 711.576C826.969 710.427 827.838 709.217 827.838 708.887C827.838 708.362 836.353 697.514 840.344 692.955C841.781 691.312 849.8 680.804 869.78 654.381C875.508 646.805 880.691 640.068 881.297 639.409C881.903 638.749 883.391 636.813 884.604 635.106C885.816 633.397 887.664 631.096 888.71 629.992C891.743 626.787 892.318 622.647 890.075 620.168C888.153 618.044 885.974 618.011 762.359 618.184C693.19 618.281 634.861 618.541 632.739 618.763ZM424.684 822.182C424.933 822.941 426.338 823.689 427.807 823.848C429.275 824.005 433.204 824.639 436.539 825.256C439.873 825.874 451.9 827.078 463.264 827.932C474.629 828.788 484.301 829.716 484.758 829.995C485.215 830.273 495.013 831.063 506.532 831.748C518.05 832.435 529.954 833.458 532.986 834.022C536.017 834.587 551.889 835.825 568.258 836.773C584.626 837.721 599.01 838.774 600.223 839.114C602.411 839.727 638.55 842.452 685.096 845.514C698.434 846.391 712.818 847.617 717.062 848.236C721.305 848.857 736.682 849.93 751.231 850.623C765.781 851.316 778.429 852.189 779.339 852.565C780.248 852.94 789.59 853.759 800.098 854.385L819.203 855.523L808.677 866.544C802.888 872.606 798.135 877.937 798.115 878.392C798.094 878.848 797.375 879.219 796.515 879.219C795.657 879.219 794.789 879.611 794.586 880.091C794.385 880.57 789.507 884.663 783.748 889.186C773.901 896.918 768.887 900.622 760.336 906.479C758.36 907.832 756.213 909.38 755.564 909.917C750.606 914.034 720.53 930.697 710.448 934.913C695.535 941.15 687.565 944.247 686.412 944.253C685.688 944.257 683.753 944.961 682.111 945.817C680.47 946.673 676.254 947.993 672.742 948.747C669.23 949.504 665.862 950.47 665.256 950.896C664.65 951.322 660.681 952.298 656.438 953.064C652.194 953.83 648.226 954.834 647.62 955.294C647.013 955.755 641.805 956.723 636.046 957.445C630.287 958.167 624.583 959.201 623.37 959.746C616.435 962.857 543.031 962.867 536.292 959.758C535.08 959.198 529.429 958.186 523.733 957.51C518.038 956.832 512.582 955.859 511.608 955.345C510.635 954.833 506.862 953.808 503.225 953.068C499.587 952.327 496.083 951.296 495.438 950.776C494.194 949.769 474.07 946.029 473.418 946.681C472.328 947.771 482.284 955.268 484.822 955.268C485.547 955.268 486.14 955.689 486.14 956.203C486.14 956.717 488.248 958.067 490.824 959.204C493.4 960.339 495.757 961.53 496.06 961.85C497.359 963.221 518.457 972.902 520.144 972.902C520.846 972.902 523.27 973.894 525.533 975.107C527.795 976.319 530.256 977.311 531.003 977.311C531.749 977.311 533.989 978.012 535.979 978.869C542.164 981.531 556.996 986.026 562.195 986.814C564.923 987.227 567.403 987.887 567.706 988.282C568.541 989.367 595.851 994.794 604.632 995.62C608.876 996.019 613.126 996.743 614.076 997.23C615.026 997.716 625.04 998.679 636.327 999.367C657.353 1000.65 693.673 999.442 700.671 997.229C702.41 996.678 707.806 995.937 712.66 995.584L721.486 994.939L723.3 1002.38C726.038 1013.62 728.603 1022.79 729.692 1025.25C730.229 1026.47 730.975 1028.95 731.35 1030.77C731.725 1032.58 733.128 1037.66 734.467 1042.05L736.902 1050.03L740.76 1049.34C742.882 1048.96 746.354 1048.02 748.476 1047.24C750.598 1046.46 755.062 1045.22 758.396 1044.49C761.73 1043.75 764.954 1042.85 765.561 1042.47C766.724 1041.76 777.097 1038.97 789.535 1036.01C797.835 1034.04 798.194 1033.36 795.755 1024.15C794.615 1019.85 792.461 1011.1 788.7 995.497C787.678 991.253 786.414 986.79 785.893 985.577C785.371 984.365 784.799 982.157 784.622 980.67C784.357 978.455 784.945 977.781 787.881 976.929C789.852 976.358 791.464 975.466 791.464 974.947C791.464 974.429 792.332 973.99 793.393 973.973C794.453 973.955 798.794 972.524 803.037 970.794C807.281 969.064 811.094 967.848 811.51 968.093C811.926 968.337 812.961 969.891 813.81 971.547C815.629 975.096 817.974 979.149 825.108 991.088C828.005 995.937 831.881 1002.63 833.719 1005.97C838.078 1013.87 839.388 1015.1 842.439 1014.2C846.053 1013.12 865.801 1002.5 866.233 1001.39C866.435 1000.88 867.202 1000.46 867.937 1000.46C868.672 1000.46 872.803 998.281 877.117 995.621C881.432 992.962 885.377 990.597 885.885 990.368C888.764 989.068 895.075 984.687 895.075 983.989C895.075 983.537 893.842 980.982 892.334 978.311C890.826 975.639 888.977 972.214 888.226 970.698C887.474 969.183 885.338 965.711 883.479 962.983C881.621 960.255 878.64 955.543 876.855 952.513C875.069 949.482 873.005 946.01 872.265 944.797C869.982 941.057 868.621 937.579 868.621 935.495C868.621 933.828 877.565 926.029 888.689 917.996C890.504 916.686 892.585 918.407 910.015 935.631C920.638 946.128 930.179 954.858 931.216 955.031C932.93 955.316 959.103 929.987 971.971 915.59L976.403 910.631L956.667 890.463L936.93 870.296L939.971 866.216C948.113 855.293 953.778 848.359 954.557 848.359C955.899 848.359 964.493 852.516 970.579 856.109C973.611 857.899 977.083 859.874 978.295 860.5C979.508 861.125 982.337 862.741 984.584 864.091C994.812 870.236 1002.97 874.81 1003.7 874.81C1004.88 874.81 1006.98 871.852 1011.53 863.789C1013.76 859.849 1015.87 856.377 1016.23 856.074C1016.98 855.432 1018.8 852.254 1022.11 845.798C1023.41 843.266 1024.76 840.947 1025.11 840.644C1025.81 840.042 1035.06 822.026 1035.06 821.27C1035.06 821.014 897.625 820.805 729.646 820.805C485.806 820.805 424.321 821.083 424.684 822.182ZM349.959 877.484C340.539 882.099 336.995 883.675 329.62 886.533C315.618 891.958 311.372 893.457 306.473 894.704C303.745 895.399 301.017 896.34 300.41 896.796C299.804 897.253 296.084 898.27 292.144 899.058C288.203 899.846 284.483 900.855 283.877 901.303C283.27 901.749 280.669 902.462 278.095 902.887C275.523 903.311 273.124 904.132 272.766 904.712C272.408 905.291 273.978 908.1 276.256 910.953C281.094 917.014 304.215 940.151 309.716 944.434L313.494 947.376L311.691 959.864C310.699 966.732 308.897 978.303 307.688 985.577C306.478 992.851 304.426 1006.24 303.125 1015.34C301.826 1024.43 300.311 1032.73 299.76 1033.78C297.305 1038.47 298.523 1040.96 304.85 1044.19C308.201 1045.9 312.293 1048.04 313.944 1048.96C325.756 1055.49 328.338 1056.97 331.273 1058.87C333.092 1060.05 336.316 1062.02 338.438 1063.26C340.56 1064.5 343.288 1066.12 344.501 1066.86C354.563 1073.04 358.171 1075.15 361.034 1076.55C362.853 1077.43 364.977 1078.76 365.754 1079.49C366.531 1080.23 368.907 1081.15 371.031 1081.55C374.475 1082.2 375.637 1081.7 381.742 1076.98C385.509 1074.07 389.395 1070.91 390.378 1069.96C391.361 1069.02 394.089 1066.68 396.441 1064.77C398.792 1062.87 401.983 1060.14 403.532 1058.71C405.08 1057.28 410.784 1052.44 416.207 1047.95C421.631 1043.46 426.563 1039.23 427.169 1038.55C430.328 1034.98 442.361 1026.79 445.304 1026.2C448.467 1025.57 457.768 1027.39 460.237 1029.13C462.491 1030.71 478.063 1035.54 483.384 1036.31C486.415 1036.75 489.396 1037.5 490.009 1037.98C490.621 1038.47 494.215 1039.21 497.996 1039.64L504.869 1040.42L506.041 1044.96C506.685 1047.46 507.888 1050.99 508.716 1052.81C509.543 1054.63 510.585 1057.6 511.03 1059.42C511.475 1061.24 512.457 1063.72 513.211 1064.93C513.965 1066.14 514.919 1068.75 515.329 1070.72C515.74 1072.69 516.493 1074.3 517.003 1074.3C517.513 1074.3 518.266 1075.91 518.676 1077.88C519.087 1079.85 520.571 1084.19 521.973 1087.53C523.375 1090.86 525.634 1096.56 526.989 1100.2C528.346 1103.84 530.068 1108.3 530.814 1110.12C531.561 1111.94 532.777 1116.03 533.516 1119.21L534.858 1125H579.853H624.848L625.614 1121.42C626.035 1119.45 626.754 1117.34 627.212 1116.73C627.669 1116.13 628.669 1113.65 629.434 1111.22C630.199 1108.8 631.116 1106.32 631.472 1105.71C632.23 1104.42 636.694 1091.99 638.401 1086.42C639.051 1084.3 639.962 1082.07 640.426 1081.46C640.891 1080.86 641.874 1078.38 642.611 1075.95C643.349 1073.53 644.627 1070.04 645.453 1068.19C646.279 1066.35 647.579 1062.5 648.343 1059.65C649.106 1056.8 650.123 1054.46 650.604 1054.46C651.084 1054.46 651.478 1053.63 651.478 1052.61C651.478 1051.58 652.493 1048.65 653.733 1046.09C655.761 1041.9 656.567 1041.3 661.724 1040.09C664.879 1039.35 667.956 1038.38 668.562 1037.94C669.169 1037.49 671.897 1036.79 674.625 1036.38C681.085 1035.4 702.1 1030.39 704.937 1029.15C706.149 1028.62 708.629 1027.85 710.448 1027.46C716.225 1026.19 724.226 1022.28 724.226 1020.73C724.226 1018.66 719.913 1017.78 712.984 1018.43C677.085 1021.8 658.813 1022.51 636.597 1021.39C623.866 1020.75 611.962 1019.78 610.143 1019.25C608.324 1018.71 600.884 1017.47 593.609 1016.49C586.335 1015.51 579.39 1014.26 578.178 1013.71C576.965 1013.16 573.493 1012.18 570.462 1011.54C567.431 1010.9 560.735 1009.18 555.582 1007.73C550.429 1006.27 543.237 1004.25 539.599 1003.22C535.962 1002.19 532.49 1000.99 531.883 1000.55C531.277 1000.1 528.553 999.102 525.83 998.321C523.107 997.54 519.896 996.214 518.696 995.372C517.495 994.531 515.83 993.843 514.996 993.843C512.024 993.843 474.059 975.548 465.197 969.845C451.645 961.124 443.673 955.819 443.152 955.175C442.849 954.802 441.447 953.888 440.037 953.145C438.627 952.402 436.643 951.062 435.628 950.167C433.853 948.601 417.468 935.89 410.636 930.777C402.52 924.703 364.406 885.311 358.53 876.92C356.664 874.257 356.527 874.266 349.959 877.484Z" fill="white"/>
</svg>
